<?xml version="1.0" encoding="UTF-8"?>
<svg width="400.000" height="400.000" viewBox="0 0 400.000 400.000" xmlns="http://www.w3.org/2000/svg">
  <!-- Grid -->
  <line x1="0.000" y1="0" x2="0.000" y2="400.000" stroke="#f0f0f0" stroke-width="0.5"/>
  <line x1="20.000" y1="0" x2="20.000" y2="400.000" stroke="#f0f0f0" stroke-width="0.5"/>
  <line x1="40.000" y1="0" x2="40.000" y2="400.000" stroke="#f0f0f0" stroke-width="0.5"/>
  <line x1="60.000" y1="0" x2="60.000" y2="400.000" stroke="#f0f0f0" stroke-width="0.5"/>
  <line x1="80.000" y1="0" x2="80.000" y2="400.000" stroke="#f0f0f0" stroke-width="0.5"/>
  <line x1="100.000" y1="0" x2="100.000" y2="400.000" stroke="#f0f0f0" stroke-width="0.5"/>
  <line x1="120.000" y1="0" x2="120.000" y2="400.000" stroke="#f0f0f0" stroke-width="0.5"/>
  <line x1="140.000" y1="0" x2="140.000" y2="400.000" stroke="#f0f0f0" stroke-width="0.5"/>
  <line x1="160.000" y1="0" x2="160.000" y2="400.000" stroke="#f0f0f0" stroke-width="0.5"/>
  <line x1="180.000" y1="0" x2="180.000" y2="400.000" stroke="#f0f0f0" stroke-width="0.5"/>
  <line x1="200.000" y1="0" x2="200.000" y2="400.000" stroke="#f0f0f0" stroke-width="0.5"/>
  <line x1="220.000" y1="0" x2="220.000" y2="400.000" stroke="#f0f0f0" stroke-width="0.5"/>
  <line x1="240.000" y1="0" x2="240.000" y2="400.000" stroke="#f0f0f0" stroke-width="0.5"/>
  <line x1="260.000" y1="0" x2="260.000" y2="400.000" stroke="#f0f0f0" stroke-width="0.5"/>
  <line x1="280.000" y1="0" x2="280.000" y2="400.000" stroke="#f0f0f0" stroke-width="0.5"/>
  <line x1="300.000" y1="0" x2="300.000" y2="400.000" stroke="#f0f0f0" stroke-width="0.5"/>
  <line x1="320.000" y1="0" x2="320.000" y2="400.000" stroke="#f0f0f0" stroke-width="0.5"/>
  <line x1="340.000" y1="0" x2="340.000" y2="400.000" stroke="#f0f0f0" stroke-width="0.5"/>
  <line x1="360.000" y1="0" x2="360.000" y2="400.000" stroke="#f0f0f0" stroke-width="0.5"/>
  <line x1="380.000" y1="0" x2="380.000" y2="400.000" stroke="#f0f0f0" stroke-width="0.5"/>
  <line x1="400.000" y1="0" x2="400.000" y2="400.000" stroke="#f0f0f0" stroke-width="0.5"/>
  <line x1="0" y1="0.000" x2="400.000" y2="0.000" stroke="#f0f0f0" stroke-width="0.5"/>
  <line x1="0" y1="20.000" x2="400.000" y2="20.000" stroke="#f0f0f0" stroke-width="0.5"/>
  <line x1="0" y1="40.000" x2="400.000" y2="40.000" stroke="#f0f0f0" stroke-width="0.5"/>
  <line x1="0" y1="60.000" x2="400.000" y2="60.000" stroke="#f0f0f0" stroke-width="0.5"/>
  <line x1="0" y1="80.000" x2="400.000" y2="80.000" stroke="#f0f0f0" stroke-width="0.5"/>
  <line x1="0" y1="100.000" x2="400.000" y2="100.000" stroke="#f0f0f0" stroke-width="0.5"/>
  <line x1="0" y1="120.000" x2="400.000" y2="120.000" stroke="#f0f0f0" stroke-width="0.5"/>
  <line x1="0" y1="140.000" x2="400.000" y2="140.000" stroke="#f0f0f0" stroke-width="0.5"/>
  <line x1="0" y1="160.000" x2="400.000" y2="160.000" stroke="#f0f0f0" stroke-width="0.5"/>
  <line x1="0" y1="180.000" x2="400.000" y2="180.000" stroke="#f0f0f0" stroke-width="0.5"/>
  <line x1="0" y1="200.000" x2="400.000" y2="200.000" stroke="#f0f0f0" stroke-width="0.5"/>
  <line x1="0" y1="220.000" x2="400.000" y2="220.000" stroke="#f0f0f0" stroke-width="0.5"/>
  <line x1="0" y1="240.000" x2="400.000" y2="240.000" stroke="#f0f0f0" stroke-width="0.5"/>
  <line x1="0" y1="260.000" x2="400.000" y2="260.000" stroke="#f0f0f0" stroke-width="0.5"/>
  <line x1="0" y1="280.000" x2="400.000" y2="280.000" stroke="#f0f0f0" stroke-width="0.5"/>
  <line x1="0" y1="300.000" x2="400.000" y2="300.000" stroke="#f0f0f0" stroke-width="0.5"/>
  <line x1="0" y1="320.000" x2="400.000" y2="320.000" stroke="#f0f0f0" stroke-width="0.5"/>
  <line x1="0" y1="340.000" x2="400.000" y2="340.000" stroke="#f0f0f0" stroke-width="0.5"/>
  <line x1="0" y1="360.000" x2="400.000" y2="360.000" stroke="#f0f0f0" stroke-width="0.5"/>
  <line x1="0" y1="380.000" x2="400.000" y2="380.000" stroke="#f0f0f0" stroke-width="0.5"/>
  <line x1="0" y1="400.000" x2="400.000" y2="400.000" stroke="#f0f0f0" stroke-width="0.5"/>
  <!-- Content -->
  <path d="M 221.900,187.354 A 93.170,93.170 0 0,1 267.768,187.354 L 244.834,147.632 A 93.168,93.168 0 0,1 221.900,187.354 Z" stroke="black" stroke-width="2.000" fill="none"/>
  <circle cx="221.900" cy="187.354" r="3.000" fill="red"/>
  <text x="221.900" y="191.941" font-family="Arial, sans-serif" font-size="10.000" fill="red" text-anchor="middle">V0</text>
  <circle cx="267.768" cy="187.354" r="3.000" fill="red"/>
  <text x="267.768" y="191.941" font-family="Arial, sans-serif" font-size="10.000" fill="red" text-anchor="middle">V1</text>
  <circle cx="244.834" cy="147.632" r="3.000" fill="red"/>
  <text x="244.834" y="152.219" font-family="Arial, sans-serif" font-size="10.000" fill="red" text-anchor="middle">V2</text>
  <circle cx="244.834" cy="174.113" r="2.000" fill="green"/>
  <text x="244.834" y="178.700" font-family="Arial, sans-serif" font-size="10.000" fill="green" text-anchor="middle">Center</text>
  <circle cx="244.834" cy="277.657" r="2.000" fill="blue"/>
  <text x="244.834" y="282.243" font-family="Arial, sans-serif" font-size="10.000" fill="blue" text-anchor="middle">C0</text>
  <line x1="244.834" y1="277.657" x2="221.900" y2="187.354" stroke="lightblue" stroke-width="0.500" stroke-dasharray="1,1"/>
  <line x1="244.834" y1="277.657" x2="267.768" y2="187.354" stroke="lightblue" stroke-width="0.500" stroke-dasharray="1,1"/>
  <line x1="221.900" y1="187.354" x2="267.768" y2="187.354" stroke="gray" stroke-width="0.500" stroke-dasharray="2,2"/>
  <line x1="244.834" y1="187.354" x2="244.834" y2="196.527" stroke="orange" stroke-width="1.000"/>
  <circle cx="244.834" cy="187.354" r="1.500" fill="orange"/>
  <text x="244.834" y="191.941" font-family="Arial, sans-serif" font-size="10.000" fill="orange" text-anchor="middle">M0</text>
  <line x1="267.768" y1="187.354" x2="244.834" y2="147.632" stroke="gray" stroke-width="0.500" stroke-dasharray="2,2"/>
  <circle cx="155.164" cy="122.341" r="2.000" fill="blue"/>
  <text x="155.164" y="126.928" font-family="Arial, sans-serif" font-size="10.000" fill="blue" text-anchor="middle">C2</text>
  <line x1="155.164" y1="122.341" x2="244.834" y2="147.632" stroke="lightblue" stroke-width="0.500" stroke-dasharray="1,1"/>
  <line x1="155.164" y1="122.341" x2="221.900" y2="187.354" stroke="lightblue" stroke-width="0.500" stroke-dasharray="1,1"/>
  <line x1="244.834" y1="147.632" x2="221.900" y2="187.354" stroke="gray" stroke-width="0.500" stroke-dasharray="2,2"/>
  <line x1="233.367" y1="167.493" x2="225.422" y2="162.906" stroke="orange" stroke-width="1.000"/>
  <circle cx="233.367" cy="167.493" r="1.500" fill="orange"/>
  <text x="233.367" y="172.080" font-family="Arial, sans-serif" font-size="10.000" fill="orange" text-anchor="middle">M2</text>
  <text x="244.834" y="194.234" font-family="Arial, sans-serif" font-size="8.000" fill="purple" text-anchor="middle">b0=-0.12</text>
  <text x="256.301" y="174.373" font-family="Arial, sans-serif" font-size="8.000" fill="purple" text-anchor="middle">b1=-0.00</text>
  <text x="233.367" y="174.373" font-family="Arial, sans-serif" font-size="8.000" fill="purple" text-anchor="middle">b2=-0.12</text>
  <text x="61.997" y="24.587" font-family="Arial, sans-serif" font-size="14.000" fill="black" text-anchor="middle">triarc_zero_bulge</text>
</svg>
