<?xml version="1.0" encoding="UTF-8"?>
<svg width="400.000" height="400.000" viewBox="0 0 400.000 400.000" xmlns="http://www.w3.org/2000/svg">
  <!-- Grid -->
  <line x1="0.000" y1="0" x2="0.000" y2="400.000" stroke="#f0f0f0" stroke-width="0.5"/>
  <line x1="20.000" y1="0" x2="20.000" y2="400.000" stroke="#f0f0f0" stroke-width="0.5"/>
  <line x1="40.000" y1="0" x2="40.000" y2="400.000" stroke="#f0f0f0" stroke-width="0.5"/>
  <line x1="60.000" y1="0" x2="60.000" y2="400.000" stroke="#f0f0f0" stroke-width="0.5"/>
  <line x1="80.000" y1="0" x2="80.000" y2="400.000" stroke="#f0f0f0" stroke-width="0.5"/>
  <line x1="100.000" y1="0" x2="100.000" y2="400.000" stroke="#f0f0f0" stroke-width="0.5"/>
  <line x1="120.000" y1="0" x2="120.000" y2="400.000" stroke="#f0f0f0" stroke-width="0.5"/>
  <line x1="140.000" y1="0" x2="140.000" y2="400.000" stroke="#f0f0f0" stroke-width="0.5"/>
  <line x1="160.000" y1="0" x2="160.000" y2="400.000" stroke="#f0f0f0" stroke-width="0.5"/>
  <line x1="180.000" y1="0" x2="180.000" y2="400.000" stroke="#f0f0f0" stroke-width="0.5"/>
  <line x1="200.000" y1="0" x2="200.000" y2="400.000" stroke="#f0f0f0" stroke-width="0.5"/>
  <line x1="220.000" y1="0" x2="220.000" y2="400.000" stroke="#f0f0f0" stroke-width="0.5"/>
  <line x1="240.000" y1="0" x2="240.000" y2="400.000" stroke="#f0f0f0" stroke-width="0.5"/>
  <line x1="260.000" y1="0" x2="260.000" y2="400.000" stroke="#f0f0f0" stroke-width="0.5"/>
  <line x1="280.000" y1="0" x2="280.000" y2="400.000" stroke="#f0f0f0" stroke-width="0.5"/>
  <line x1="300.000" y1="0" x2="300.000" y2="400.000" stroke="#f0f0f0" stroke-width="0.5"/>
  <line x1="320.000" y1="0" x2="320.000" y2="400.000" stroke="#f0f0f0" stroke-width="0.5"/>
  <line x1="340.000" y1="0" x2="340.000" y2="400.000" stroke="#f0f0f0" stroke-width="0.5"/>
  <line x1="360.000" y1="0" x2="360.000" y2="400.000" stroke="#f0f0f0" stroke-width="0.5"/>
  <line x1="380.000" y1="0" x2="380.000" y2="400.000" stroke="#f0f0f0" stroke-width="0.5"/>
  <line x1="400.000" y1="0" x2="400.000" y2="400.000" stroke="#f0f0f0" stroke-width="0.5"/>
  <line x1="0" y1="0.000" x2="400.000" y2="0.000" stroke="#f0f0f0" stroke-width="0.5"/>
  <line x1="0" y1="20.000" x2="400.000" y2="20.000" stroke="#f0f0f0" stroke-width="0.5"/>
  <line x1="0" y1="40.000" x2="400.000" y2="40.000" stroke="#f0f0f0" stroke-width="0.5"/>
  <line x1="0" y1="60.000" x2="400.000" y2="60.000" stroke="#f0f0f0" stroke-width="0.5"/>
  <line x1="0" y1="80.000" x2="400.000" y2="80.000" stroke="#f0f0f0" stroke-width="0.5"/>
  <line x1="0" y1="100.000" x2="400.000" y2="100.000" stroke="#f0f0f0" stroke-width="0.5"/>
  <line x1="0" y1="120.000" x2="400.000" y2="120.000" stroke="#f0f0f0" stroke-width="0.5"/>
  <line x1="0" y1="140.000" x2="400.000" y2="140.000" stroke="#f0f0f0" stroke-width="0.5"/>
  <line x1="0" y1="160.000" x2="400.000" y2="160.000" stroke="#f0f0f0" stroke-width="0.5"/>
  <line x1="0" y1="180.000" x2="400.000" y2="180.000" stroke="#f0f0f0" stroke-width="0.5"/>
  <line x1="0" y1="200.000" x2="400.000" y2="200.000" stroke="#f0f0f0" stroke-width="0.5"/>
  <line x1="0" y1="220.000" x2="400.000" y2="220.000" stroke="#f0f0f0" stroke-width="0.5"/>
  <line x1="0" y1="240.000" x2="400.000" y2="240.000" stroke="#f0f0f0" stroke-width="0.5"/>
  <line x1="0" y1="260.000" x2="400.000" y2="260.000" stroke="#f0f0f0" stroke-width="0.5"/>
  <line x1="0" y1="280.000" x2="400.000" y2="280.000" stroke="#f0f0f0" stroke-width="0.5"/>
  <line x1="0" y1="300.000" x2="400.000" y2="300.000" stroke="#f0f0f0" stroke-width="0.5"/>
  <line x1="0" y1="320.000" x2="400.000" y2="320.000" stroke="#f0f0f0" stroke-width="0.5"/>
  <line x1="0" y1="340.000" x2="400.000" y2="340.000" stroke="#f0f0f0" stroke-width="0.5"/>
  <line x1="0" y1="360.000" x2="400.000" y2="360.000" stroke="#f0f0f0" stroke-width="0.5"/>
  <line x1="0" y1="380.000" x2="400.000" y2="380.000" stroke="#f0f0f0" stroke-width="0.5"/>
  <line x1="0" y1="400.000" x2="400.000" y2="400.000" stroke="#f0f0f0" stroke-width="0.5"/>
  <!-- Content -->
  <path d="M 171.641,218.634 A 78.041,78.041 0 0,1 210.061,218.634 A 99.942,99.942 0 0,1 171.641,187.898 A 62.433,62.433 0 0,1 171.641,218.634 Z" stroke="black" stroke-width="2.000" fill="none"/>
  <circle cx="171.641" cy="218.634" r="3.000" fill="red"/>
  <text x="171.641" y="222.476" font-family="Arial, sans-serif" font-size="10.000" fill="red" text-anchor="middle">V0</text>
  <circle cx="210.061" cy="218.634" r="3.000" fill="red"/>
  <text x="210.061" y="222.476" font-family="Arial, sans-serif" font-size="10.000" fill="red" text-anchor="middle">V1</text>
  <circle cx="171.641" cy="187.898" r="3.000" fill="red"/>
  <text x="171.641" y="191.740" font-family="Arial, sans-serif" font-size="10.000" fill="red" text-anchor="middle">V2</text>
  <circle cx="184.447" cy="208.389" r="2.000" fill="green"/>
  <text x="184.447" y="212.231" font-family="Arial, sans-serif" font-size="10.000" fill="green" text-anchor="middle">Center</text>
  <circle cx="190.851" cy="294.274" r="2.000" fill="blue"/>
  <text x="190.851" y="298.116" font-family="Arial, sans-serif" font-size="10.000" fill="blue" text-anchor="middle">C0</text>
  <line x1="190.851" y1="294.274" x2="171.641" y2="218.634" stroke="lightblue" stroke-width="0.500" stroke-dasharray="1,1"/>
  <line x1="190.851" y1="294.274" x2="210.061" y2="218.634" stroke="lightblue" stroke-width="0.500" stroke-dasharray="1,1"/>
  <line x1="171.641" y1="218.634" x2="210.061" y2="218.634" stroke="gray" stroke-width="0.500" stroke-dasharray="2,2"/>
  <line x1="190.851" y1="218.634" x2="190.851" y2="226.318" stroke="orange" stroke-width="1.000"/>
  <circle cx="190.851" cy="218.634" r="1.500" fill="orange"/>
  <text x="190.851" y="222.476" font-family="Arial, sans-serif" font-size="10.000" fill="orange" text-anchor="middle">M0</text>
  <circle cx="251.363" cy="127.626" r="2.000" fill="blue"/>
  <text x="251.363" y="131.468" font-family="Arial, sans-serif" font-size="10.000" fill="blue" text-anchor="middle">C1</text>
  <line x1="251.363" y1="127.626" x2="210.061" y2="218.634" stroke="lightblue" stroke-width="0.500" stroke-dasharray="1,1"/>
  <line x1="251.363" y1="127.626" x2="171.641" y2="187.898" stroke="lightblue" stroke-width="0.500" stroke-dasharray="1,1"/>
  <line x1="210.061" y1="218.634" x2="171.641" y2="187.898" stroke="gray" stroke-width="0.500" stroke-dasharray="2,2"/>
  <line x1="190.851" y1="203.266" x2="195.651" y2="197.266" stroke="orange" stroke-width="1.000"/>
  <circle cx="190.851" cy="203.266" r="1.500" fill="orange"/>
  <text x="190.851" y="207.108" font-family="Arial, sans-serif" font-size="10.000" fill="orange" text-anchor="middle">M1</text>
  <circle cx="111.128" cy="203.266" r="2.000" fill="blue"/>
  <text x="111.128" y="207.108" font-family="Arial, sans-serif" font-size="10.000" fill="blue" text-anchor="middle">C2</text>
  <line x1="111.128" y1="203.266" x2="171.641" y2="187.898" stroke="lightblue" stroke-width="0.500" stroke-dasharray="1,1"/>
  <line x1="111.128" y1="203.266" x2="171.641" y2="218.634" stroke="lightblue" stroke-width="0.500" stroke-dasharray="1,1"/>
  <line x1="171.641" y1="187.898" x2="171.641" y2="218.634" stroke="gray" stroke-width="0.500" stroke-dasharray="2,2"/>
  <line x1="171.641" y1="203.266" x2="163.956" y2="203.266" stroke="orange" stroke-width="1.000"/>
  <circle cx="171.641" cy="203.266" r="1.500" fill="orange"/>
  <text x="171.641" y="207.108" font-family="Arial, sans-serif" font-size="10.000" fill="orange" text-anchor="middle">M2</text>
  <text x="190.851" y="224.397" font-family="Arial, sans-serif" font-size="8.000" fill="purple" text-anchor="middle">b0=-0.12</text>
  <text x="190.851" y="209.029" font-family="Arial, sans-serif" font-size="8.000" fill="purple" text-anchor="middle">b1=-0.12</text>
  <text x="171.641" y="209.029" font-family="Arial, sans-serif" font-size="8.000" fill="purple" text-anchor="middle">b2=-0.12</text>
  <text x="48.695" y="23.842" font-family="Arial, sans-serif" font-size="14.000" fill="black" text-anchor="middle">triarc_right_triangle</text>
</svg>
