<?xml version="1.0" encoding="UTF-8"?>
<svg width="400.000" height="400.000" viewBox="0 0 400.000 400.000" xmlns="http://www.w3.org/2000/svg">
  <!-- Grid -->
  <line x1="0.000" y1="0" x2="0.000" y2="400.000" stroke="#f0f0f0" stroke-width="0.5"/>
  <line x1="20.000" y1="0" x2="20.000" y2="400.000" stroke="#f0f0f0" stroke-width="0.5"/>
  <line x1="40.000" y1="0" x2="40.000" y2="400.000" stroke="#f0f0f0" stroke-width="0.5"/>
  <line x1="60.000" y1="0" x2="60.000" y2="400.000" stroke="#f0f0f0" stroke-width="0.5"/>
  <line x1="80.000" y1="0" x2="80.000" y2="400.000" stroke="#f0f0f0" stroke-width="0.5"/>
  <line x1="100.000" y1="0" x2="100.000" y2="400.000" stroke="#f0f0f0" stroke-width="0.5"/>
  <line x1="120.000" y1="0" x2="120.000" y2="400.000" stroke="#f0f0f0" stroke-width="0.5"/>
  <line x1="140.000" y1="0" x2="140.000" y2="400.000" stroke="#f0f0f0" stroke-width="0.5"/>
  <line x1="160.000" y1="0" x2="160.000" y2="400.000" stroke="#f0f0f0" stroke-width="0.5"/>
  <line x1="180.000" y1="0" x2="180.000" y2="400.000" stroke="#f0f0f0" stroke-width="0.5"/>
  <line x1="200.000" y1="0" x2="200.000" y2="400.000" stroke="#f0f0f0" stroke-width="0.5"/>
  <line x1="220.000" y1="0" x2="220.000" y2="400.000" stroke="#f0f0f0" stroke-width="0.5"/>
  <line x1="240.000" y1="0" x2="240.000" y2="400.000" stroke="#f0f0f0" stroke-width="0.5"/>
  <line x1="260.000" y1="0" x2="260.000" y2="400.000" stroke="#f0f0f0" stroke-width="0.5"/>
  <line x1="280.000" y1="0" x2="280.000" y2="400.000" stroke="#f0f0f0" stroke-width="0.5"/>
  <line x1="300.000" y1="0" x2="300.000" y2="400.000" stroke="#f0f0f0" stroke-width="0.5"/>
  <line x1="320.000" y1="0" x2="320.000" y2="400.000" stroke="#f0f0f0" stroke-width="0.5"/>
  <line x1="340.000" y1="0" x2="340.000" y2="400.000" stroke="#f0f0f0" stroke-width="0.5"/>
  <line x1="360.000" y1="0" x2="360.000" y2="400.000" stroke="#f0f0f0" stroke-width="0.5"/>
  <line x1="380.000" y1="0" x2="380.000" y2="400.000" stroke="#f0f0f0" stroke-width="0.5"/>
  <line x1="400.000" y1="0" x2="400.000" y2="400.000" stroke="#f0f0f0" stroke-width="0.5"/>
  <line x1="0" y1="0.000" x2="400.000" y2="0.000" stroke="#f0f0f0" stroke-width="0.5"/>
  <line x1="0" y1="20.000" x2="400.000" y2="20.000" stroke="#f0f0f0" stroke-width="0.5"/>
  <line x1="0" y1="40.000" x2="400.000" y2="40.000" stroke="#f0f0f0" stroke-width="0.5"/>
  <line x1="0" y1="60.000" x2="400.000" y2="60.000" stroke="#f0f0f0" stroke-width="0.5"/>
  <line x1="0" y1="80.000" x2="400.000" y2="80.000" stroke="#f0f0f0" stroke-width="0.5"/>
  <line x1="0" y1="100.000" x2="400.000" y2="100.000" stroke="#f0f0f0" stroke-width="0.5"/>
  <line x1="0" y1="120.000" x2="400.000" y2="120.000" stroke="#f0f0f0" stroke-width="0.5"/>
  <line x1="0" y1="140.000" x2="400.000" y2="140.000" stroke="#f0f0f0" stroke-width="0.5"/>
  <line x1="0" y1="160.000" x2="400.000" y2="160.000" stroke="#f0f0f0" stroke-width="0.5"/>
  <line x1="0" y1="180.000" x2="400.000" y2="180.000" stroke="#f0f0f0" stroke-width="0.5"/>
  <line x1="0" y1="200.000" x2="400.000" y2="200.000" stroke="#f0f0f0" stroke-width="0.5"/>
  <line x1="0" y1="220.000" x2="400.000" y2="220.000" stroke="#f0f0f0" stroke-width="0.5"/>
  <line x1="0" y1="240.000" x2="400.000" y2="240.000" stroke="#f0f0f0" stroke-width="0.5"/>
  <line x1="0" y1="260.000" x2="400.000" y2="260.000" stroke="#f0f0f0" stroke-width="0.5"/>
  <line x1="0" y1="280.000" x2="400.000" y2="280.000" stroke="#f0f0f0" stroke-width="0.5"/>
  <line x1="0" y1="300.000" x2="400.000" y2="300.000" stroke="#f0f0f0" stroke-width="0.5"/>
  <line x1="0" y1="320.000" x2="400.000" y2="320.000" stroke="#f0f0f0" stroke-width="0.5"/>
  <line x1="0" y1="340.000" x2="400.000" y2="340.000" stroke="#f0f0f0" stroke-width="0.5"/>
  <line x1="0" y1="360.000" x2="400.000" y2="360.000" stroke="#f0f0f0" stroke-width="0.5"/>
  <line x1="0" y1="380.000" x2="400.000" y2="380.000" stroke="#f0f0f0" stroke-width="0.5"/>
  <line x1="0" y1="400.000" x2="400.000" y2="400.000" stroke="#f0f0f0" stroke-width="0.5"/>
  <!-- Content -->
  <path d="M 178.500,188.145 A 87.342,87.342 0 0,1 221.500,188.145 A 87.340,87.340 0 0,1 200.000,150.908 A 87.340,87.340 0 0,1 178.500,188.145 Z" stroke="black" stroke-width="2.000" fill="none"/>
  <circle cx="178.500" cy="188.145" r="3.000" fill="red"/>
  <text x="178.500" y="192.445" font-family="Arial, sans-serif" font-size="10.000" fill="red" text-anchor="middle">V0</text>
  <circle cx="221.500" cy="188.145" r="3.000" fill="red"/>
  <text x="221.500" y="192.445" font-family="Arial, sans-serif" font-size="10.000" fill="red" text-anchor="middle">V1</text>
  <circle cx="200.000" cy="150.908" r="3.000" fill="red"/>
  <text x="200.000" y="155.208" font-family="Arial, sans-serif" font-size="10.000" fill="red" text-anchor="middle">V2</text>
  <circle cx="200.000" cy="175.732" r="2.000" fill="green"/>
  <text x="200.000" y="180.032" font-family="Arial, sans-serif" font-size="10.000" fill="green" text-anchor="middle">Center</text>
  <circle cx="200.000" cy="272.799" r="2.000" fill="blue"/>
  <text x="200.000" y="277.099" font-family="Arial, sans-serif" font-size="10.000" fill="blue" text-anchor="middle">C0</text>
  <line x1="200.000" y1="272.799" x2="178.500" y2="188.145" stroke="lightblue" stroke-width="0.500" stroke-dasharray="1,1"/>
  <line x1="200.000" y1="272.799" x2="221.500" y2="188.145" stroke="lightblue" stroke-width="0.500" stroke-dasharray="1,1"/>
  <line x1="178.500" y1="188.145" x2="221.500" y2="188.145" stroke="gray" stroke-width="0.500" stroke-dasharray="2,2"/>
  <line x1="200.000" y1="188.145" x2="200.000" y2="196.745" stroke="orange" stroke-width="1.000"/>
  <circle cx="200.000" cy="188.145" r="1.500" fill="orange"/>
  <text x="200.000" y="192.445" font-family="Arial, sans-serif" font-size="10.000" fill="orange" text-anchor="middle">M0</text>
  <circle cx="284.060" cy="127.199" r="2.000" fill="blue"/>
  <text x="284.060" y="131.499" font-family="Arial, sans-serif" font-size="10.000" fill="blue" text-anchor="middle">C1</text>
  <line x1="284.060" y1="127.199" x2="221.500" y2="188.145" stroke="lightblue" stroke-width="0.500" stroke-dasharray="1,1"/>
  <line x1="284.060" y1="127.199" x2="200.000" y2="150.908" stroke="lightblue" stroke-width="0.500" stroke-dasharray="1,1"/>
  <line x1="221.500" y1="188.145" x2="200.000" y2="150.908" stroke="gray" stroke-width="0.500" stroke-dasharray="2,2"/>
  <line x1="210.750" y1="169.526" x2="218.197" y2="165.226" stroke="orange" stroke-width="1.000"/>
  <circle cx="210.750" cy="169.526" r="1.500" fill="orange"/>
  <text x="210.750" y="173.826" font-family="Arial, sans-serif" font-size="10.000" fill="orange" text-anchor="middle">M1</text>
  <circle cx="115.940" cy="127.199" r="2.000" fill="blue"/>
  <text x="115.940" y="131.499" font-family="Arial, sans-serif" font-size="10.000" fill="blue" text-anchor="middle">C2</text>
  <line x1="115.940" y1="127.199" x2="200.000" y2="150.908" stroke="lightblue" stroke-width="0.500" stroke-dasharray="1,1"/>
  <line x1="115.940" y1="127.199" x2="178.500" y2="188.145" stroke="lightblue" stroke-width="0.500" stroke-dasharray="1,1"/>
  <line x1="200.000" y1="150.908" x2="178.500" y2="188.145" stroke="gray" stroke-width="0.500" stroke-dasharray="2,2"/>
  <line x1="189.250" y1="169.526" x2="181.803" y2="165.226" stroke="orange" stroke-width="1.000"/>
  <circle cx="189.250" cy="169.526" r="1.500" fill="orange"/>
  <text x="189.250" y="173.826" font-family="Arial, sans-serif" font-size="10.000" fill="orange" text-anchor="middle">M2</text>
  <text x="200.000" y="194.595" font-family="Arial, sans-serif" font-size="8.000" fill="purple" text-anchor="middle">b0=-0.12</text>
  <text x="210.750" y="175.976" font-family="Arial, sans-serif" font-size="8.000" fill="purple" text-anchor="middle">b1=-0.12</text>
  <text x="189.250" y="175.976" font-family="Arial, sans-serif" font-size="8.000" fill="purple" text-anchor="middle">b2=-0.12</text>
  <text x="28.600" y="35.559" font-family="Arial, sans-serif" font-size="14.000" fill="black" text-anchor="middle">triarc_default</text>
</svg>
