<?xml version="1.0" encoding="UTF-8"?>
<svg width="400.000" height="400.000" viewBox="0 0 400.000 400.000" xmlns="http://www.w3.org/2000/svg">
  <!-- Grid -->
  <line x1="0.000" y1="0" x2="0.000" y2="400.000" stroke="#f0f0f0" stroke-width="0.5"/>
  <line x1="20.000" y1="0" x2="20.000" y2="400.000" stroke="#f0f0f0" stroke-width="0.5"/>
  <line x1="40.000" y1="0" x2="40.000" y2="400.000" stroke="#f0f0f0" stroke-width="0.5"/>
  <line x1="60.000" y1="0" x2="60.000" y2="400.000" stroke="#f0f0f0" stroke-width="0.5"/>
  <line x1="80.000" y1="0" x2="80.000" y2="400.000" stroke="#f0f0f0" stroke-width="0.5"/>
  <line x1="100.000" y1="0" x2="100.000" y2="400.000" stroke="#f0f0f0" stroke-width="0.5"/>
  <line x1="120.000" y1="0" x2="120.000" y2="400.000" stroke="#f0f0f0" stroke-width="0.5"/>
  <line x1="140.000" y1="0" x2="140.000" y2="400.000" stroke="#f0f0f0" stroke-width="0.5"/>
  <line x1="160.000" y1="0" x2="160.000" y2="400.000" stroke="#f0f0f0" stroke-width="0.5"/>
  <line x1="180.000" y1="0" x2="180.000" y2="400.000" stroke="#f0f0f0" stroke-width="0.5"/>
  <line x1="200.000" y1="0" x2="200.000" y2="400.000" stroke="#f0f0f0" stroke-width="0.5"/>
  <line x1="220.000" y1="0" x2="220.000" y2="400.000" stroke="#f0f0f0" stroke-width="0.5"/>
  <line x1="240.000" y1="0" x2="240.000" y2="400.000" stroke="#f0f0f0" stroke-width="0.5"/>
  <line x1="260.000" y1="0" x2="260.000" y2="400.000" stroke="#f0f0f0" stroke-width="0.5"/>
  <line x1="280.000" y1="0" x2="280.000" y2="400.000" stroke="#f0f0f0" stroke-width="0.5"/>
  <line x1="300.000" y1="0" x2="300.000" y2="400.000" stroke="#f0f0f0" stroke-width="0.5"/>
  <line x1="320.000" y1="0" x2="320.000" y2="400.000" stroke="#f0f0f0" stroke-width="0.5"/>
  <line x1="340.000" y1="0" x2="340.000" y2="400.000" stroke="#f0f0f0" stroke-width="0.5"/>
  <line x1="360.000" y1="0" x2="360.000" y2="400.000" stroke="#f0f0f0" stroke-width="0.5"/>
  <line x1="380.000" y1="0" x2="380.000" y2="400.000" stroke="#f0f0f0" stroke-width="0.5"/>
  <line x1="400.000" y1="0" x2="400.000" y2="400.000" stroke="#f0f0f0" stroke-width="0.5"/>
  <line x1="0" y1="0.000" x2="400.000" y2="0.000" stroke="#f0f0f0" stroke-width="0.5"/>
  <line x1="0" y1="20.000" x2="400.000" y2="20.000" stroke="#f0f0f0" stroke-width="0.5"/>
  <line x1="0" y1="40.000" x2="400.000" y2="40.000" stroke="#f0f0f0" stroke-width="0.5"/>
  <line x1="0" y1="60.000" x2="400.000" y2="60.000" stroke="#f0f0f0" stroke-width="0.5"/>
  <line x1="0" y1="80.000" x2="400.000" y2="80.000" stroke="#f0f0f0" stroke-width="0.5"/>
  <line x1="0" y1="100.000" x2="400.000" y2="100.000" stroke="#f0f0f0" stroke-width="0.5"/>
  <line x1="0" y1="120.000" x2="400.000" y2="120.000" stroke="#f0f0f0" stroke-width="0.5"/>
  <line x1="0" y1="140.000" x2="400.000" y2="140.000" stroke="#f0f0f0" stroke-width="0.5"/>
  <line x1="0" y1="160.000" x2="400.000" y2="160.000" stroke="#f0f0f0" stroke-width="0.5"/>
  <line x1="0" y1="180.000" x2="400.000" y2="180.000" stroke="#f0f0f0" stroke-width="0.5"/>
  <line x1="0" y1="200.000" x2="400.000" y2="200.000" stroke="#f0f0f0" stroke-width="0.5"/>
  <line x1="0" y1="220.000" x2="400.000" y2="220.000" stroke="#f0f0f0" stroke-width="0.5"/>
  <line x1="0" y1="240.000" x2="400.000" y2="240.000" stroke="#f0f0f0" stroke-width="0.5"/>
  <line x1="0" y1="260.000" x2="400.000" y2="260.000" stroke="#f0f0f0" stroke-width="0.5"/>
  <line x1="0" y1="280.000" x2="400.000" y2="280.000" stroke="#f0f0f0" stroke-width="0.5"/>
  <line x1="0" y1="300.000" x2="400.000" y2="300.000" stroke="#f0f0f0" stroke-width="0.5"/>
  <line x1="0" y1="320.000" x2="400.000" y2="320.000" stroke="#f0f0f0" stroke-width="0.5"/>
  <line x1="0" y1="340.000" x2="400.000" y2="340.000" stroke="#f0f0f0" stroke-width="0.5"/>
  <line x1="0" y1="360.000" x2="400.000" y2="360.000" stroke="#f0f0f0" stroke-width="0.5"/>
  <line x1="0" y1="380.000" x2="400.000" y2="380.000" stroke="#f0f0f0" stroke-width="0.5"/>
  <line x1="0" y1="400.000" x2="400.000" y2="400.000" stroke="#f0f0f0" stroke-width="0.5"/>
  <!-- Content -->
  <path d="M 196.215,177.989 A 94.674,94.674 0 0,1 203.785,177.989 A 94.671,94.671 0 0,1 200.000,171.432 A 94.671,94.671 0 0,1 196.215,177.989 Z" stroke="black" stroke-width="2.000" fill="none"/>
  <circle cx="196.215" cy="177.989" r="3.000" fill="red"/>
  <text x="196.215" y="178.746" font-family="Arial, sans-serif" font-size="10.000" fill="red" text-anchor="middle">V0</text>
  <circle cx="203.785" cy="177.989" r="3.000" fill="red"/>
  <text x="203.785" y="178.746" font-family="Arial, sans-serif" font-size="10.000" fill="red" text-anchor="middle">V1</text>
  <circle cx="200.000" cy="171.432" r="3.000" fill="red"/>
  <text x="200.000" y="172.189" font-family="Arial, sans-serif" font-size="10.000" fill="red" text-anchor="middle">V2</text>
  <circle cx="200.000" cy="175.803" r="2.000" fill="green"/>
  <text x="200.000" y="176.560" font-family="Arial, sans-serif" font-size="10.000" fill="green" text-anchor="middle">Center</text>
  <circle cx="200.000" cy="272.586" r="2.000" fill="blue"/>
  <text x="200.000" y="273.343" font-family="Arial, sans-serif" font-size="10.000" fill="blue" text-anchor="middle">C0</text>
  <line x1="200.000" y1="272.586" x2="196.215" y2="177.989" stroke="lightblue" stroke-width="0.500" stroke-dasharray="1,1"/>
  <line x1="200.000" y1="272.586" x2="203.785" y2="177.989" stroke="lightblue" stroke-width="0.500" stroke-dasharray="1,1"/>
  <line x1="196.215" y1="177.989" x2="203.785" y2="177.989" stroke="gray" stroke-width="0.500" stroke-dasharray="2,2"/>
  <line x1="200.000" y1="177.989" x2="200.000" y2="179.503" stroke="orange" stroke-width="1.000"/>
  <circle cx="200.000" cy="177.989" r="1.500" fill="orange"/>
  <text x="200.000" y="178.746" font-family="Arial, sans-serif" font-size="10.000" fill="orange" text-anchor="middle">M0</text>
  <circle cx="283.814" cy="127.412" r="2.000" fill="blue"/>
  <text x="283.814" y="128.169" font-family="Arial, sans-serif" font-size="10.000" fill="blue" text-anchor="middle">C1</text>
  <line x1="283.814" y1="127.412" x2="203.785" y2="177.989" stroke="lightblue" stroke-width="0.500" stroke-dasharray="1,1"/>
  <line x1="283.814" y1="127.412" x2="200.000" y2="171.432" stroke="lightblue" stroke-width="0.500" stroke-dasharray="1,1"/>
  <line x1="203.785" y1="177.989" x2="200.000" y2="171.432" stroke="gray" stroke-width="0.500" stroke-dasharray="2,2"/>
  <line x1="201.893" y1="174.710" x2="203.204" y2="173.953" stroke="orange" stroke-width="1.000"/>
  <circle cx="201.893" cy="174.710" r="1.500" fill="orange"/>
  <text x="201.893" y="175.468" font-family="Arial, sans-serif" font-size="10.000" fill="orange" text-anchor="middle">M1</text>
  <circle cx="116.186" cy="127.412" r="2.000" fill="blue"/>
  <text x="116.186" y="128.169" font-family="Arial, sans-serif" font-size="10.000" fill="blue" text-anchor="middle">C2</text>
  <line x1="116.186" y1="127.412" x2="200.000" y2="171.432" stroke="lightblue" stroke-width="0.500" stroke-dasharray="1,1"/>
  <line x1="116.186" y1="127.412" x2="196.215" y2="177.989" stroke="lightblue" stroke-width="0.500" stroke-dasharray="1,1"/>
  <line x1="200.000" y1="171.432" x2="196.215" y2="177.989" stroke="gray" stroke-width="0.500" stroke-dasharray="2,2"/>
  <line x1="198.107" y1="174.710" x2="196.796" y2="173.953" stroke="orange" stroke-width="1.000"/>
  <circle cx="198.107" cy="174.710" r="1.500" fill="orange"/>
  <text x="198.107" y="175.468" font-family="Arial, sans-serif" font-size="10.000" fill="orange" text-anchor="middle">M2</text>
  <text x="200.000" y="179.124" font-family="Arial, sans-serif" font-size="8.000" fill="purple" text-anchor="middle">b0=-0.02</text>
  <text x="201.893" y="175.846" font-family="Arial, sans-serif" font-size="8.000" fill="purple" text-anchor="middle">b1=-0.02</text>
  <text x="198.107" y="175.846" font-family="Arial, sans-serif" font-size="8.000" fill="purple" text-anchor="middle">b2=-0.02</text>
  <text x="21.514" y="31.983" font-family="Arial, sans-serif" font-size="14.000" fill="black" text-anchor="middle">triarc_nearly_flat</text>
</svg>
