<?xml version="1.0" encoding="UTF-8"?>
<svg width="400.000" height="400.000" viewBox="0 0 400.000 400.000" xmlns="http://www.w3.org/2000/svg">
  <!-- Grid -->
  <line x1="0.000" y1="0" x2="0.000" y2="400.000" stroke="#f0f0f0" stroke-width="0.5"/>
  <line x1="20.000" y1="0" x2="20.000" y2="400.000" stroke="#f0f0f0" stroke-width="0.5"/>
  <line x1="40.000" y1="0" x2="40.000" y2="400.000" stroke="#f0f0f0" stroke-width="0.5"/>
  <line x1="60.000" y1="0" x2="60.000" y2="400.000" stroke="#f0f0f0" stroke-width="0.5"/>
  <line x1="80.000" y1="0" x2="80.000" y2="400.000" stroke="#f0f0f0" stroke-width="0.5"/>
  <line x1="100.000" y1="0" x2="100.000" y2="400.000" stroke="#f0f0f0" stroke-width="0.5"/>
  <line x1="120.000" y1="0" x2="120.000" y2="400.000" stroke="#f0f0f0" stroke-width="0.5"/>
  <line x1="140.000" y1="0" x2="140.000" y2="400.000" stroke="#f0f0f0" stroke-width="0.5"/>
  <line x1="160.000" y1="0" x2="160.000" y2="400.000" stroke="#f0f0f0" stroke-width="0.5"/>
  <line x1="180.000" y1="0" x2="180.000" y2="400.000" stroke="#f0f0f0" stroke-width="0.5"/>
  <line x1="200.000" y1="0" x2="200.000" y2="400.000" stroke="#f0f0f0" stroke-width="0.5"/>
  <line x1="220.000" y1="0" x2="220.000" y2="400.000" stroke="#f0f0f0" stroke-width="0.5"/>
  <line x1="240.000" y1="0" x2="240.000" y2="400.000" stroke="#f0f0f0" stroke-width="0.5"/>
  <line x1="260.000" y1="0" x2="260.000" y2="400.000" stroke="#f0f0f0" stroke-width="0.5"/>
  <line x1="280.000" y1="0" x2="280.000" y2="400.000" stroke="#f0f0f0" stroke-width="0.5"/>
  <line x1="300.000" y1="0" x2="300.000" y2="400.000" stroke="#f0f0f0" stroke-width="0.5"/>
  <line x1="320.000" y1="0" x2="320.000" y2="400.000" stroke="#f0f0f0" stroke-width="0.5"/>
  <line x1="340.000" y1="0" x2="340.000" y2="400.000" stroke="#f0f0f0" stroke-width="0.5"/>
  <line x1="360.000" y1="0" x2="360.000" y2="400.000" stroke="#f0f0f0" stroke-width="0.5"/>
  <line x1="380.000" y1="0" x2="380.000" y2="400.000" stroke="#f0f0f0" stroke-width="0.5"/>
  <line x1="400.000" y1="0" x2="400.000" y2="400.000" stroke="#f0f0f0" stroke-width="0.5"/>
  <line x1="0" y1="0.000" x2="400.000" y2="0.000" stroke="#f0f0f0" stroke-width="0.5"/>
  <line x1="0" y1="20.000" x2="400.000" y2="20.000" stroke="#f0f0f0" stroke-width="0.5"/>
  <line x1="0" y1="40.000" x2="400.000" y2="40.000" stroke="#f0f0f0" stroke-width="0.5"/>
  <line x1="0" y1="60.000" x2="400.000" y2="60.000" stroke="#f0f0f0" stroke-width="0.5"/>
  <line x1="0" y1="80.000" x2="400.000" y2="80.000" stroke="#f0f0f0" stroke-width="0.5"/>
  <line x1="0" y1="100.000" x2="400.000" y2="100.000" stroke="#f0f0f0" stroke-width="0.5"/>
  <line x1="0" y1="120.000" x2="400.000" y2="120.000" stroke="#f0f0f0" stroke-width="0.5"/>
  <line x1="0" y1="140.000" x2="400.000" y2="140.000" stroke="#f0f0f0" stroke-width="0.5"/>
  <line x1="0" y1="160.000" x2="400.000" y2="160.000" stroke="#f0f0f0" stroke-width="0.5"/>
  <line x1="0" y1="180.000" x2="400.000" y2="180.000" stroke="#f0f0f0" stroke-width="0.5"/>
  <line x1="0" y1="200.000" x2="400.000" y2="200.000" stroke="#f0f0f0" stroke-width="0.5"/>
  <line x1="0" y1="220.000" x2="400.000" y2="220.000" stroke="#f0f0f0" stroke-width="0.5"/>
  <line x1="0" y1="240.000" x2="400.000" y2="240.000" stroke="#f0f0f0" stroke-width="0.5"/>
  <line x1="0" y1="260.000" x2="400.000" y2="260.000" stroke="#f0f0f0" stroke-width="0.5"/>
  <line x1="0" y1="280.000" x2="400.000" y2="280.000" stroke="#f0f0f0" stroke-width="0.5"/>
  <line x1="0" y1="300.000" x2="400.000" y2="300.000" stroke="#f0f0f0" stroke-width="0.5"/>
  <line x1="0" y1="320.000" x2="400.000" y2="320.000" stroke="#f0f0f0" stroke-width="0.5"/>
  <line x1="0" y1="340.000" x2="400.000" y2="340.000" stroke="#f0f0f0" stroke-width="0.5"/>
  <line x1="0" y1="360.000" x2="400.000" y2="360.000" stroke="#f0f0f0" stroke-width="0.5"/>
  <line x1="0" y1="380.000" x2="400.000" y2="380.000" stroke="#f0f0f0" stroke-width="0.5"/>
  <line x1="0" y1="400.000" x2="400.000" y2="400.000" stroke="#f0f0f0" stroke-width="0.5"/>
  <!-- Content -->
  <path d="M 134.545,208.182 A 265.909,265.909 0 0,1 265.455,208.182 A 141.996,141.996 0 0,1 200.000,183.636 A 141.996,141.996 0 0,1 134.545,208.182 Z" stroke="black" stroke-width="2.000" fill="none"/>
  <circle cx="134.545" cy="208.182" r="3.000" fill="red"/>
  <text x="134.545" y="216.364" font-family="Arial, sans-serif" font-size="10.000" fill="red" text-anchor="middle">V0</text>
  <circle cx="265.455" cy="208.182" r="3.000" fill="red"/>
  <text x="265.455" y="216.364" font-family="Arial, sans-serif" font-size="10.000" fill="red" text-anchor="middle">V1</text>
  <circle cx="200.000" cy="183.636" r="3.000" fill="red"/>
  <text x="200.000" y="191.818" font-family="Arial, sans-serif" font-size="10.000" fill="red" text-anchor="middle">V2</text>
  <circle cx="200.000" cy="200.000" r="2.000" fill="green"/>
  <text x="200.000" y="208.182" font-family="Arial, sans-serif" font-size="10.000" fill="green" text-anchor="middle">Center</text>
  <circle cx="200.000" cy="465.909" r="2.000" fill="blue"/>
  <text x="200.000" y="474.091" font-family="Arial, sans-serif" font-size="10.000" fill="blue" text-anchor="middle">C0</text>
  <line x1="200.000" y1="465.909" x2="134.545" y2="208.182" stroke="lightblue" stroke-width="0.500" stroke-dasharray="1,1"/>
  <line x1="200.000" y1="465.909" x2="265.455" y2="208.182" stroke="lightblue" stroke-width="0.500" stroke-dasharray="1,1"/>
  <line x1="134.545" y1="208.182" x2="265.455" y2="208.182" stroke="gray" stroke-width="0.500" stroke-dasharray="2,2"/>
  <line x1="200.000" y1="208.182" x2="200.000" y2="224.545" stroke="orange" stroke-width="1.000"/>
  <circle cx="200.000" cy="208.182" r="1.500" fill="orange"/>
  <text x="200.000" y="216.364" font-family="Arial, sans-serif" font-size="10.000" fill="orange" text-anchor="middle">M0</text>
  <circle cx="281.051" cy="67.045" r="2.000" fill="blue"/>
  <text x="281.051" y="75.227" font-family="Arial, sans-serif" font-size="10.000" fill="blue" text-anchor="middle">C1</text>
  <line x1="281.051" y1="67.045" x2="265.455" y2="208.182" stroke="lightblue" stroke-width="0.500" stroke-dasharray="1,1"/>
  <line x1="281.051" y1="67.045" x2="200.000" y2="183.636" stroke="lightblue" stroke-width="0.500" stroke-dasharray="1,1"/>
  <line x1="265.455" y1="208.182" x2="200.000" y2="183.636" stroke="gray" stroke-width="0.500" stroke-dasharray="2,2"/>
  <line x1="232.727" y1="195.909" x2="238.473" y2="180.587" stroke="orange" stroke-width="1.000"/>
  <circle cx="232.727" cy="195.909" r="1.500" fill="orange"/>
  <text x="232.727" y="204.091" font-family="Arial, sans-serif" font-size="10.000" fill="orange" text-anchor="middle">M1</text>
  <circle cx="118.949" cy="67.045" r="2.000" fill="blue"/>
  <text x="118.949" y="75.227" font-family="Arial, sans-serif" font-size="10.000" fill="blue" text-anchor="middle">C2</text>
  <line x1="118.949" y1="67.045" x2="200.000" y2="183.636" stroke="lightblue" stroke-width="0.500" stroke-dasharray="1,1"/>
  <line x1="118.949" y1="67.045" x2="134.545" y2="208.182" stroke="lightblue" stroke-width="0.500" stroke-dasharray="1,1"/>
  <line x1="200.000" y1="183.636" x2="134.545" y2="208.182" stroke="gray" stroke-width="0.500" stroke-dasharray="2,2"/>
  <line x1="167.273" y1="195.909" x2="161.527" y2="180.587" stroke="orange" stroke-width="1.000"/>
  <circle cx="167.273" cy="195.909" r="1.500" fill="orange"/>
  <text x="167.273" y="204.091" font-family="Arial, sans-serif" font-size="10.000" fill="orange" text-anchor="middle">M2</text>
  <text x="200.000" y="220.455" font-family="Arial, sans-serif" font-size="8.000" fill="purple" text-anchor="middle">b0=-0.12</text>
  <text x="232.727" y="208.182" font-family="Arial, sans-serif" font-size="8.000" fill="purple" text-anchor="middle">b1=-0.12</text>
  <text x="167.273" y="208.182" font-family="Arial, sans-serif" font-size="8.000" fill="purple" text-anchor="middle">b2=-0.12</text>
  <text x="36.364" y="28.182" font-family="Arial, sans-serif" font-size="14.000" fill="black" text-anchor="middle">triarc_wide</text>
</svg>
