<?xml version="1.0" encoding="UTF-8"?>
<svg width="400.000" height="400.000" viewBox="0 0 400.000 400.000" xmlns="http://www.w3.org/2000/svg">
  <!-- Grid -->
  <line x1="0.000" y1="0" x2="0.000" y2="400.000" stroke="#f0f0f0" stroke-width="0.5"/>
  <line x1="20.000" y1="0" x2="20.000" y2="400.000" stroke="#f0f0f0" stroke-width="0.5"/>
  <line x1="40.000" y1="0" x2="40.000" y2="400.000" stroke="#f0f0f0" stroke-width="0.5"/>
  <line x1="60.000" y1="0" x2="60.000" y2="400.000" stroke="#f0f0f0" stroke-width="0.5"/>
  <line x1="80.000" y1="0" x2="80.000" y2="400.000" stroke="#f0f0f0" stroke-width="0.5"/>
  <line x1="100.000" y1="0" x2="100.000" y2="400.000" stroke="#f0f0f0" stroke-width="0.5"/>
  <line x1="120.000" y1="0" x2="120.000" y2="400.000" stroke="#f0f0f0" stroke-width="0.5"/>
  <line x1="140.000" y1="0" x2="140.000" y2="400.000" stroke="#f0f0f0" stroke-width="0.5"/>
  <line x1="160.000" y1="0" x2="160.000" y2="400.000" stroke="#f0f0f0" stroke-width="0.5"/>
  <line x1="180.000" y1="0" x2="180.000" y2="400.000" stroke="#f0f0f0" stroke-width="0.5"/>
  <line x1="200.000" y1="0" x2="200.000" y2="400.000" stroke="#f0f0f0" stroke-width="0.5"/>
  <line x1="220.000" y1="0" x2="220.000" y2="400.000" stroke="#f0f0f0" stroke-width="0.5"/>
  <line x1="240.000" y1="0" x2="240.000" y2="400.000" stroke="#f0f0f0" stroke-width="0.5"/>
  <line x1="260.000" y1="0" x2="260.000" y2="400.000" stroke="#f0f0f0" stroke-width="0.5"/>
  <line x1="280.000" y1="0" x2="280.000" y2="400.000" stroke="#f0f0f0" stroke-width="0.5"/>
  <line x1="300.000" y1="0" x2="300.000" y2="400.000" stroke="#f0f0f0" stroke-width="0.5"/>
  <line x1="320.000" y1="0" x2="320.000" y2="400.000" stroke="#f0f0f0" stroke-width="0.5"/>
  <line x1="340.000" y1="0" x2="340.000" y2="400.000" stroke="#f0f0f0" stroke-width="0.5"/>
  <line x1="360.000" y1="0" x2="360.000" y2="400.000" stroke="#f0f0f0" stroke-width="0.5"/>
  <line x1="380.000" y1="0" x2="380.000" y2="400.000" stroke="#f0f0f0" stroke-width="0.5"/>
  <line x1="400.000" y1="0" x2="400.000" y2="400.000" stroke="#f0f0f0" stroke-width="0.5"/>
  <line x1="0" y1="0.000" x2="400.000" y2="0.000" stroke="#f0f0f0" stroke-width="0.5"/>
  <line x1="0" y1="20.000" x2="400.000" y2="20.000" stroke="#f0f0f0" stroke-width="0.5"/>
  <line x1="0" y1="40.000" x2="400.000" y2="40.000" stroke="#f0f0f0" stroke-width="0.5"/>
  <line x1="0" y1="60.000" x2="400.000" y2="60.000" stroke="#f0f0f0" stroke-width="0.5"/>
  <line x1="0" y1="80.000" x2="400.000" y2="80.000" stroke="#f0f0f0" stroke-width="0.5"/>
  <line x1="0" y1="100.000" x2="400.000" y2="100.000" stroke="#f0f0f0" stroke-width="0.5"/>
  <line x1="0" y1="120.000" x2="400.000" y2="120.000" stroke="#f0f0f0" stroke-width="0.5"/>
  <line x1="0" y1="140.000" x2="400.000" y2="140.000" stroke="#f0f0f0" stroke-width="0.5"/>
  <line x1="0" y1="160.000" x2="400.000" y2="160.000" stroke="#f0f0f0" stroke-width="0.5"/>
  <line x1="0" y1="180.000" x2="400.000" y2="180.000" stroke="#f0f0f0" stroke-width="0.5"/>
  <line x1="0" y1="200.000" x2="400.000" y2="200.000" stroke="#f0f0f0" stroke-width="0.5"/>
  <line x1="0" y1="220.000" x2="400.000" y2="220.000" stroke="#f0f0f0" stroke-width="0.5"/>
  <line x1="0" y1="240.000" x2="400.000" y2="240.000" stroke="#f0f0f0" stroke-width="0.5"/>
  <line x1="0" y1="260.000" x2="400.000" y2="260.000" stroke="#f0f0f0" stroke-width="0.5"/>
  <line x1="0" y1="280.000" x2="400.000" y2="280.000" stroke="#f0f0f0" stroke-width="0.5"/>
  <line x1="0" y1="300.000" x2="400.000" y2="300.000" stroke="#f0f0f0" stroke-width="0.5"/>
  <line x1="0" y1="320.000" x2="400.000" y2="320.000" stroke="#f0f0f0" stroke-width="0.5"/>
  <line x1="0" y1="340.000" x2="400.000" y2="340.000" stroke="#f0f0f0" stroke-width="0.5"/>
  <line x1="0" y1="360.000" x2="400.000" y2="360.000" stroke="#f0f0f0" stroke-width="0.5"/>
  <line x1="0" y1="380.000" x2="400.000" y2="380.000" stroke="#f0f0f0" stroke-width="0.5"/>
  <line x1="0" y1="400.000" x2="400.000" y2="400.000" stroke="#f0f0f0" stroke-width="0.5"/>
  <!-- Content -->
  <path d="M 172.727,221.818 A 166.193,166.193 0 0,1 254.545,221.818 A 212.831,212.831 0 0,1 172.727,156.364 A 132.955,132.955 0 0,1 172.727,221.818 Z" stroke="black" stroke-width="2.000" fill="none"/>
  <circle cx="172.727" cy="221.818" r="3.000" fill="red"/>
  <text x="172.727" y="230.000" font-family="Arial, sans-serif" font-size="10.000" fill="red" text-anchor="middle">V0</text>
  <circle cx="254.545" cy="221.818" r="3.000" fill="red"/>
  <text x="254.545" y="230.000" font-family="Arial, sans-serif" font-size="10.000" fill="red" text-anchor="middle">V1</text>
  <circle cx="172.727" cy="156.364" r="3.000" fill="red"/>
  <text x="172.727" y="164.545" font-family="Arial, sans-serif" font-size="10.000" fill="red" text-anchor="middle">V2</text>
  <circle cx="200.000" cy="200.000" r="2.000" fill="green"/>
  <text x="200.000" y="208.182" font-family="Arial, sans-serif" font-size="10.000" fill="green" text-anchor="middle">Center</text>
  <circle cx="213.636" cy="382.898" r="2.000" fill="blue"/>
  <text x="213.636" y="391.080" font-family="Arial, sans-serif" font-size="10.000" fill="blue" text-anchor="middle">C0</text>
  <line x1="213.636" y1="382.898" x2="172.727" y2="221.818" stroke="lightblue" stroke-width="0.500" stroke-dasharray="1,1"/>
  <line x1="213.636" y1="382.898" x2="254.545" y2="221.818" stroke="lightblue" stroke-width="0.500" stroke-dasharray="1,1"/>
  <line x1="172.727" y1="221.818" x2="254.545" y2="221.818" stroke="gray" stroke-width="0.500" stroke-dasharray="2,2"/>
  <line x1="213.636" y1="221.818" x2="213.636" y2="238.182" stroke="orange" stroke-width="1.000"/>
  <circle cx="213.636" cy="221.818" r="1.500" fill="orange"/>
  <text x="213.636" y="230.000" font-family="Arial, sans-serif" font-size="10.000" fill="orange" text-anchor="middle">M0</text>
  <circle cx="342.500" cy="28.011" r="2.000" fill="blue"/>
  <text x="342.500" y="36.193" font-family="Arial, sans-serif" font-size="10.000" fill="blue" text-anchor="middle">C1</text>
  <line x1="342.500" y1="28.011" x2="254.545" y2="221.818" stroke="lightblue" stroke-width="0.500" stroke-dasharray="1,1"/>
  <line x1="342.500" y1="28.011" x2="172.727" y2="156.364" stroke="lightblue" stroke-width="0.500" stroke-dasharray="1,1"/>
  <line x1="254.545" y1="221.818" x2="172.727" y2="156.364" stroke="gray" stroke-width="0.500" stroke-dasharray="2,2"/>
  <line x1="213.636" y1="189.091" x2="223.859" y2="176.313" stroke="orange" stroke-width="1.000"/>
  <circle cx="213.636" cy="189.091" r="1.500" fill="orange"/>
  <text x="213.636" y="197.273" font-family="Arial, sans-serif" font-size="10.000" fill="orange" text-anchor="middle">M1</text>
  <circle cx="43.864" cy="189.091" r="2.000" fill="blue"/>
  <text x="43.864" y="197.273" font-family="Arial, sans-serif" font-size="10.000" fill="blue" text-anchor="middle">C2</text>
  <line x1="43.864" y1="189.091" x2="172.727" y2="156.364" stroke="lightblue" stroke-width="0.500" stroke-dasharray="1,1"/>
  <line x1="43.864" y1="189.091" x2="172.727" y2="221.818" stroke="lightblue" stroke-width="0.500" stroke-dasharray="1,1"/>
  <line x1="172.727" y1="156.364" x2="172.727" y2="221.818" stroke="gray" stroke-width="0.500" stroke-dasharray="2,2"/>
  <line x1="172.727" y1="189.091" x2="156.364" y2="189.091" stroke="orange" stroke-width="1.000"/>
  <circle cx="172.727" cy="189.091" r="1.500" fill="orange"/>
  <text x="172.727" y="197.273" font-family="Arial, sans-serif" font-size="10.000" fill="orange" text-anchor="middle">M2</text>
  <text x="213.636" y="234.091" font-family="Arial, sans-serif" font-size="8.000" fill="purple" text-anchor="middle">b0=-0.12</text>
  <text x="213.636" y="201.364" font-family="Arial, sans-serif" font-size="8.000" fill="purple" text-anchor="middle">b1=-0.12</text>
  <text x="172.727" y="201.364" font-family="Arial, sans-serif" font-size="8.000" fill="purple" text-anchor="middle">b2=-0.12</text>
  <text x="36.364" y="28.182" font-family="Arial, sans-serif" font-size="14.000" fill="black" text-anchor="middle">triarc_right_triangle</text>
</svg>
