<?xml version="1.0" encoding="UTF-8"?>
<svg width="400.000" height="400.000" viewBox="0 0 400.000 400.000" xmlns="http://www.w3.org/2000/svg">
  <!-- Grid -->
  <line x1="0.000" y1="0" x2="0.000" y2="400.000" stroke="#f0f0f0" stroke-width="0.5"/>
  <line x1="20.000" y1="0" x2="20.000" y2="400.000" stroke="#f0f0f0" stroke-width="0.5"/>
  <line x1="40.000" y1="0" x2="40.000" y2="400.000" stroke="#f0f0f0" stroke-width="0.5"/>
  <line x1="60.000" y1="0" x2="60.000" y2="400.000" stroke="#f0f0f0" stroke-width="0.5"/>
  <line x1="80.000" y1="0" x2="80.000" y2="400.000" stroke="#f0f0f0" stroke-width="0.5"/>
  <line x1="100.000" y1="0" x2="100.000" y2="400.000" stroke="#f0f0f0" stroke-width="0.5"/>
  <line x1="120.000" y1="0" x2="120.000" y2="400.000" stroke="#f0f0f0" stroke-width="0.5"/>
  <line x1="140.000" y1="0" x2="140.000" y2="400.000" stroke="#f0f0f0" stroke-width="0.5"/>
  <line x1="160.000" y1="0" x2="160.000" y2="400.000" stroke="#f0f0f0" stroke-width="0.5"/>
  <line x1="180.000" y1="0" x2="180.000" y2="400.000" stroke="#f0f0f0" stroke-width="0.5"/>
  <line x1="200.000" y1="0" x2="200.000" y2="400.000" stroke="#f0f0f0" stroke-width="0.5"/>
  <line x1="220.000" y1="0" x2="220.000" y2="400.000" stroke="#f0f0f0" stroke-width="0.5"/>
  <line x1="240.000" y1="0" x2="240.000" y2="400.000" stroke="#f0f0f0" stroke-width="0.5"/>
  <line x1="260.000" y1="0" x2="260.000" y2="400.000" stroke="#f0f0f0" stroke-width="0.5"/>
  <line x1="280.000" y1="0" x2="280.000" y2="400.000" stroke="#f0f0f0" stroke-width="0.5"/>
  <line x1="300.000" y1="0" x2="300.000" y2="400.000" stroke="#f0f0f0" stroke-width="0.5"/>
  <line x1="320.000" y1="0" x2="320.000" y2="400.000" stroke="#f0f0f0" stroke-width="0.5"/>
  <line x1="340.000" y1="0" x2="340.000" y2="400.000" stroke="#f0f0f0" stroke-width="0.5"/>
  <line x1="360.000" y1="0" x2="360.000" y2="400.000" stroke="#f0f0f0" stroke-width="0.5"/>
  <line x1="380.000" y1="0" x2="380.000" y2="400.000" stroke="#f0f0f0" stroke-width="0.5"/>
  <line x1="400.000" y1="0" x2="400.000" y2="400.000" stroke="#f0f0f0" stroke-width="0.5"/>
  <line x1="0" y1="0.000" x2="400.000" y2="0.000" stroke="#f0f0f0" stroke-width="0.5"/>
  <line x1="0" y1="20.000" x2="400.000" y2="20.000" stroke="#f0f0f0" stroke-width="0.5"/>
  <line x1="0" y1="40.000" x2="400.000" y2="40.000" stroke="#f0f0f0" stroke-width="0.5"/>
  <line x1="0" y1="60.000" x2="400.000" y2="60.000" stroke="#f0f0f0" stroke-width="0.5"/>
  <line x1="0" y1="80.000" x2="400.000" y2="80.000" stroke="#f0f0f0" stroke-width="0.5"/>
  <line x1="0" y1="100.000" x2="400.000" y2="100.000" stroke="#f0f0f0" stroke-width="0.5"/>
  <line x1="0" y1="120.000" x2="400.000" y2="120.000" stroke="#f0f0f0" stroke-width="0.5"/>
  <line x1="0" y1="140.000" x2="400.000" y2="140.000" stroke="#f0f0f0" stroke-width="0.5"/>
  <line x1="0" y1="160.000" x2="400.000" y2="160.000" stroke="#f0f0f0" stroke-width="0.5"/>
  <line x1="0" y1="180.000" x2="400.000" y2="180.000" stroke="#f0f0f0" stroke-width="0.5"/>
  <line x1="0" y1="200.000" x2="400.000" y2="200.000" stroke="#f0f0f0" stroke-width="0.5"/>
  <line x1="0" y1="220.000" x2="400.000" y2="220.000" stroke="#f0f0f0" stroke-width="0.5"/>
  <line x1="0" y1="240.000" x2="400.000" y2="240.000" stroke="#f0f0f0" stroke-width="0.5"/>
  <line x1="0" y1="260.000" x2="400.000" y2="260.000" stroke="#f0f0f0" stroke-width="0.5"/>
  <line x1="0" y1="280.000" x2="400.000" y2="280.000" stroke="#f0f0f0" stroke-width="0.5"/>
  <line x1="0" y1="300.000" x2="400.000" y2="300.000" stroke="#f0f0f0" stroke-width="0.5"/>
  <line x1="0" y1="320.000" x2="400.000" y2="320.000" stroke="#f0f0f0" stroke-width="0.5"/>
  <line x1="0" y1="340.000" x2="400.000" y2="340.000" stroke="#f0f0f0" stroke-width="0.5"/>
  <line x1="0" y1="360.000" x2="400.000" y2="360.000" stroke="#f0f0f0" stroke-width="0.5"/>
  <line x1="0" y1="380.000" x2="400.000" y2="380.000" stroke="#f0f0f0" stroke-width="0.5"/>
  <line x1="0" y1="400.000" x2="400.000" y2="400.000" stroke="#f0f0f0" stroke-width="0.5"/>
  <!-- Content -->
  <path d="M 167.732,194.610 A 83.896,83.896 0 0,1 232.268,194.610 A 83.894,83.894 0 0,1 200.000,138.723 A 83.894,83.894 0 0,1 167.732,194.610 Z" stroke="black" stroke-width="2.000" fill="none"/>
  <circle cx="167.732" cy="194.610" r="3.000" fill="red"/>
  <text x="167.732" y="201.064" font-family="Arial, sans-serif" font-size="10.000" fill="red" text-anchor="middle">V0</text>
  <circle cx="232.268" cy="194.610" r="3.000" fill="red"/>
  <text x="232.268" y="201.064" font-family="Arial, sans-serif" font-size="10.000" fill="red" text-anchor="middle">V1</text>
  <circle cx="200.000" cy="138.723" r="3.000" fill="red"/>
  <text x="200.000" y="145.176" font-family="Arial, sans-serif" font-size="10.000" fill="red" text-anchor="middle">V2</text>
  <circle cx="200.000" cy="175.981" r="2.000" fill="green"/>
  <text x="200.000" y="182.435" font-family="Arial, sans-serif" font-size="10.000" fill="green" text-anchor="middle">Center</text>
  <circle cx="200.000" cy="272.053" r="2.000" fill="blue"/>
  <text x="200.000" y="278.506" font-family="Arial, sans-serif" font-size="10.000" fill="blue" text-anchor="middle">C0</text>
  <line x1="200.000" y1="272.053" x2="167.732" y2="194.610" stroke="lightblue" stroke-width="0.500" stroke-dasharray="1,1"/>
  <line x1="200.000" y1="272.053" x2="232.268" y2="194.610" stroke="lightblue" stroke-width="0.500" stroke-dasharray="1,1"/>
  <line x1="167.732" y1="194.610" x2="232.268" y2="194.610" stroke="gray" stroke-width="0.500" stroke-dasharray="2,2"/>
  <line x1="200.000" y1="194.610" x2="200.000" y2="207.517" stroke="orange" stroke-width="1.000"/>
  <circle cx="200.000" cy="194.610" r="1.500" fill="orange"/>
  <text x="200.000" y="201.064" font-family="Arial, sans-serif" font-size="10.000" fill="orange" text-anchor="middle">M0</text>
  <circle cx="283.199" cy="127.945" r="2.000" fill="blue"/>
  <text x="283.199" y="134.399" font-family="Arial, sans-serif" font-size="10.000" fill="blue" text-anchor="middle">C1</text>
  <line x1="283.199" y1="127.945" x2="232.268" y2="194.610" stroke="lightblue" stroke-width="0.500" stroke-dasharray="1,1"/>
  <line x1="283.199" y1="127.945" x2="200.000" y2="138.723" stroke="lightblue" stroke-width="0.500" stroke-dasharray="1,1"/>
  <line x1="232.268" y1="194.610" x2="200.000" y2="138.723" stroke="gray" stroke-width="0.500" stroke-dasharray="2,2"/>
  <line x1="216.134" y1="166.667" x2="227.312" y2="160.213" stroke="orange" stroke-width="1.000"/>
  <circle cx="216.134" cy="166.667" r="1.500" fill="orange"/>
  <text x="216.134" y="173.120" font-family="Arial, sans-serif" font-size="10.000" fill="orange" text-anchor="middle">M1</text>
  <circle cx="116.801" cy="127.945" r="2.000" fill="blue"/>
  <text x="116.801" y="134.399" font-family="Arial, sans-serif" font-size="10.000" fill="blue" text-anchor="middle">C2</text>
  <line x1="116.801" y1="127.945" x2="200.000" y2="138.723" stroke="lightblue" stroke-width="0.500" stroke-dasharray="1,1"/>
  <line x1="116.801" y1="127.945" x2="167.732" y2="194.610" stroke="lightblue" stroke-width="0.500" stroke-dasharray="1,1"/>
  <line x1="200.000" y1="138.723" x2="167.732" y2="194.610" stroke="gray" stroke-width="0.500" stroke-dasharray="2,2"/>
  <line x1="183.866" y1="166.667" x2="172.688" y2="160.213" stroke="orange" stroke-width="1.000"/>
  <circle cx="183.866" cy="166.667" r="1.500" fill="orange"/>
  <text x="183.866" y="173.120" font-family="Arial, sans-serif" font-size="10.000" fill="orange" text-anchor="middle">M2</text>
  <text x="200.000" y="204.291" font-family="Arial, sans-serif" font-size="8.000" fill="purple" text-anchor="middle">b0=-0.20</text>
  <text x="216.134" y="176.347" font-family="Arial, sans-serif" font-size="8.000" fill="purple" text-anchor="middle">b1=-0.20</text>
  <text x="183.866" y="176.347" font-family="Arial, sans-serif" font-size="8.000" fill="purple" text-anchor="middle">b2=-0.20</text>
  <text x="32.907" y="37.598" font-family="Arial, sans-serif" font-size="14.000" fill="black" text-anchor="middle">triarc_nearly_round</text>
</svg>
