<?xml version="1.0" encoding="UTF-8"?>
<svg width="400.000" height="400.000" viewBox="0 0 400.000 400.000" xmlns="http://www.w3.org/2000/svg">
  <!-- Grid -->
  <line x1="0.000" y1="0" x2="0.000" y2="400.000" stroke="#f0f0f0" stroke-width="0.5"/>
  <line x1="20.000" y1="0" x2="20.000" y2="400.000" stroke="#f0f0f0" stroke-width="0.5"/>
  <line x1="40.000" y1="0" x2="40.000" y2="400.000" stroke="#f0f0f0" stroke-width="0.5"/>
  <line x1="60.000" y1="0" x2="60.000" y2="400.000" stroke="#f0f0f0" stroke-width="0.5"/>
  <line x1="80.000" y1="0" x2="80.000" y2="400.000" stroke="#f0f0f0" stroke-width="0.5"/>
  <line x1="100.000" y1="0" x2="100.000" y2="400.000" stroke="#f0f0f0" stroke-width="0.5"/>
  <line x1="120.000" y1="0" x2="120.000" y2="400.000" stroke="#f0f0f0" stroke-width="0.5"/>
  <line x1="140.000" y1="0" x2="140.000" y2="400.000" stroke="#f0f0f0" stroke-width="0.5"/>
  <line x1="160.000" y1="0" x2="160.000" y2="400.000" stroke="#f0f0f0" stroke-width="0.5"/>
  <line x1="180.000" y1="0" x2="180.000" y2="400.000" stroke="#f0f0f0" stroke-width="0.5"/>
  <line x1="200.000" y1="0" x2="200.000" y2="400.000" stroke="#f0f0f0" stroke-width="0.5"/>
  <line x1="220.000" y1="0" x2="220.000" y2="400.000" stroke="#f0f0f0" stroke-width="0.5"/>
  <line x1="240.000" y1="0" x2="240.000" y2="400.000" stroke="#f0f0f0" stroke-width="0.5"/>
  <line x1="260.000" y1="0" x2="260.000" y2="400.000" stroke="#f0f0f0" stroke-width="0.5"/>
  <line x1="280.000" y1="0" x2="280.000" y2="400.000" stroke="#f0f0f0" stroke-width="0.5"/>
  <line x1="300.000" y1="0" x2="300.000" y2="400.000" stroke="#f0f0f0" stroke-width="0.5"/>
  <line x1="320.000" y1="0" x2="320.000" y2="400.000" stroke="#f0f0f0" stroke-width="0.5"/>
  <line x1="340.000" y1="0" x2="340.000" y2="400.000" stroke="#f0f0f0" stroke-width="0.5"/>
  <line x1="360.000" y1="0" x2="360.000" y2="400.000" stroke="#f0f0f0" stroke-width="0.5"/>
  <line x1="380.000" y1="0" x2="380.000" y2="400.000" stroke="#f0f0f0" stroke-width="0.5"/>
  <line x1="400.000" y1="0" x2="400.000" y2="400.000" stroke="#f0f0f0" stroke-width="0.5"/>
  <line x1="0" y1="0.000" x2="400.000" y2="0.000" stroke="#f0f0f0" stroke-width="0.5"/>
  <line x1="0" y1="20.000" x2="400.000" y2="20.000" stroke="#f0f0f0" stroke-width="0.5"/>
  <line x1="0" y1="40.000" x2="400.000" y2="40.000" stroke="#f0f0f0" stroke-width="0.5"/>
  <line x1="0" y1="60.000" x2="400.000" y2="60.000" stroke="#f0f0f0" stroke-width="0.5"/>
  <line x1="0" y1="80.000" x2="400.000" y2="80.000" stroke="#f0f0f0" stroke-width="0.5"/>
  <line x1="0" y1="100.000" x2="400.000" y2="100.000" stroke="#f0f0f0" stroke-width="0.5"/>
  <line x1="0" y1="120.000" x2="400.000" y2="120.000" stroke="#f0f0f0" stroke-width="0.5"/>
  <line x1="0" y1="140.000" x2="400.000" y2="140.000" stroke="#f0f0f0" stroke-width="0.5"/>
  <line x1="0" y1="160.000" x2="400.000" y2="160.000" stroke="#f0f0f0" stroke-width="0.5"/>
  <line x1="0" y1="180.000" x2="400.000" y2="180.000" stroke="#f0f0f0" stroke-width="0.5"/>
  <line x1="0" y1="200.000" x2="400.000" y2="200.000" stroke="#f0f0f0" stroke-width="0.5"/>
  <line x1="0" y1="220.000" x2="400.000" y2="220.000" stroke="#f0f0f0" stroke-width="0.5"/>
  <line x1="0" y1="240.000" x2="400.000" y2="240.000" stroke="#f0f0f0" stroke-width="0.5"/>
  <line x1="0" y1="260.000" x2="400.000" y2="260.000" stroke="#f0f0f0" stroke-width="0.5"/>
  <line x1="0" y1="280.000" x2="400.000" y2="280.000" stroke="#f0f0f0" stroke-width="0.5"/>
  <line x1="0" y1="300.000" x2="400.000" y2="300.000" stroke="#f0f0f0" stroke-width="0.5"/>
  <line x1="0" y1="320.000" x2="400.000" y2="320.000" stroke="#f0f0f0" stroke-width="0.5"/>
  <line x1="0" y1="340.000" x2="400.000" y2="340.000" stroke="#f0f0f0" stroke-width="0.5"/>
  <line x1="0" y1="360.000" x2="400.000" y2="360.000" stroke="#f0f0f0" stroke-width="0.5"/>
  <line x1="0" y1="380.000" x2="400.000" y2="380.000" stroke="#f0f0f0" stroke-width="0.5"/>
  <line x1="0" y1="400.000" x2="400.000" y2="400.000" stroke="#f0f0f0" stroke-width="0.5"/>
  <!-- Content -->
  <path d="M 171.931,148.432 A 114.030,114.030 0 0,1 228.069,148.432 A 60.892,60.892 0 0,1 200.000,137.907 A 60.892,60.892 0 0,1 171.931,148.432 Z" stroke="black" stroke-width="2.000" fill="none"/>
  <circle cx="171.931" cy="148.432" r="3.000" fill="red"/>
  <text x="171.931" y="151.941" font-family="Arial, sans-serif" font-size="10.000" fill="red" text-anchor="middle">V0</text>
  <circle cx="228.069" cy="148.432" r="3.000" fill="red"/>
  <text x="228.069" y="151.941" font-family="Arial, sans-serif" font-size="10.000" fill="red" text-anchor="middle">V1</text>
  <circle cx="200.000" cy="137.907" r="3.000" fill="red"/>
  <text x="200.000" y="141.415" font-family="Arial, sans-serif" font-size="10.000" fill="red" text-anchor="middle">V2</text>
  <circle cx="200.000" cy="144.924" r="2.000" fill="green"/>
  <text x="200.000" y="148.432" font-family="Arial, sans-serif" font-size="10.000" fill="green" text-anchor="middle">Center</text>
  <circle cx="200.000" cy="258.953" r="2.000" fill="blue"/>
  <text x="200.000" y="262.462" font-family="Arial, sans-serif" font-size="10.000" fill="blue" text-anchor="middle">C0</text>
  <line x1="200.000" y1="258.953" x2="171.931" y2="148.432" stroke="lightblue" stroke-width="0.500" stroke-dasharray="1,1"/>
  <line x1="200.000" y1="258.953" x2="228.069" y2="148.432" stroke="lightblue" stroke-width="0.500" stroke-dasharray="1,1"/>
  <line x1="171.931" y1="148.432" x2="228.069" y2="148.432" stroke="gray" stroke-width="0.500" stroke-dasharray="2,2"/>
  <line x1="200.000" y1="148.432" x2="200.000" y2="155.450" stroke="orange" stroke-width="1.000"/>
  <circle cx="200.000" cy="148.432" r="1.500" fill="orange"/>
  <text x="200.000" y="151.941" font-family="Arial, sans-serif" font-size="10.000" fill="orange" text-anchor="middle">M0</text>
  <circle cx="234.757" cy="87.909" r="2.000" fill="blue"/>
  <text x="234.757" y="91.418" font-family="Arial, sans-serif" font-size="10.000" fill="blue" text-anchor="middle">C1</text>
  <line x1="234.757" y1="87.909" x2="228.069" y2="148.432" stroke="lightblue" stroke-width="0.500" stroke-dasharray="1,1"/>
  <line x1="234.757" y1="87.909" x2="200.000" y2="137.907" stroke="lightblue" stroke-width="0.500" stroke-dasharray="1,1"/>
  <line x1="228.069" y1="148.432" x2="200.000" y2="137.907" stroke="gray" stroke-width="0.500" stroke-dasharray="2,2"/>
  <line x1="214.034" y1="143.169" x2="216.498" y2="136.599" stroke="orange" stroke-width="1.000"/>
  <circle cx="214.034" cy="143.169" r="1.500" fill="orange"/>
  <text x="214.034" y="146.678" font-family="Arial, sans-serif" font-size="10.000" fill="orange" text-anchor="middle">M1</text>
  <circle cx="165.243" cy="87.909" r="2.000" fill="blue"/>
  <text x="165.243" y="91.418" font-family="Arial, sans-serif" font-size="10.000" fill="blue" text-anchor="middle">C2</text>
  <line x1="165.243" y1="87.909" x2="200.000" y2="137.907" stroke="lightblue" stroke-width="0.500" stroke-dasharray="1,1"/>
  <line x1="165.243" y1="87.909" x2="171.931" y2="148.432" stroke="lightblue" stroke-width="0.500" stroke-dasharray="1,1"/>
  <line x1="200.000" y1="137.907" x2="171.931" y2="148.432" stroke="gray" stroke-width="0.500" stroke-dasharray="2,2"/>
  <line x1="185.966" y1="143.169" x2="183.502" y2="136.599" stroke="orange" stroke-width="1.000"/>
  <circle cx="185.966" cy="143.169" r="1.500" fill="orange"/>
  <text x="185.966" y="146.678" font-family="Arial, sans-serif" font-size="10.000" fill="orange" text-anchor="middle">M2</text>
  <text x="200.000" y="153.695" font-family="Arial, sans-serif" font-size="8.000" fill="purple" text-anchor="middle">b0=-0.12</text>
  <text x="214.034" y="148.432" font-family="Arial, sans-serif" font-size="8.000" fill="purple" text-anchor="middle">b1=-0.12</text>
  <text x="185.966" y="148.432" font-family="Arial, sans-serif" font-size="8.000" fill="purple" text-anchor="middle">b2=-0.12</text>
  <text x="85.970" y="23.509" font-family="Arial, sans-serif" font-size="14.000" fill="black" text-anchor="middle">triarc_wide</text>
</svg>
