<?xml version="1.0" encoding="UTF-8"?>
<svg width="400.000" height="400.000" viewBox="0 0 400.000 400.000" xmlns="http://www.w3.org/2000/svg">
  <!-- Grid -->
  <line x1="0.000" y1="0" x2="0.000" y2="400.000" stroke="#f0f0f0" stroke-width="0.5"/>
  <line x1="20.000" y1="0" x2="20.000" y2="400.000" stroke="#f0f0f0" stroke-width="0.5"/>
  <line x1="40.000" y1="0" x2="40.000" y2="400.000" stroke="#f0f0f0" stroke-width="0.5"/>
  <line x1="60.000" y1="0" x2="60.000" y2="400.000" stroke="#f0f0f0" stroke-width="0.5"/>
  <line x1="80.000" y1="0" x2="80.000" y2="400.000" stroke="#f0f0f0" stroke-width="0.5"/>
  <line x1="100.000" y1="0" x2="100.000" y2="400.000" stroke="#f0f0f0" stroke-width="0.5"/>
  <line x1="120.000" y1="0" x2="120.000" y2="400.000" stroke="#f0f0f0" stroke-width="0.5"/>
  <line x1="140.000" y1="0" x2="140.000" y2="400.000" stroke="#f0f0f0" stroke-width="0.5"/>
  <line x1="160.000" y1="0" x2="160.000" y2="400.000" stroke="#f0f0f0" stroke-width="0.5"/>
  <line x1="180.000" y1="0" x2="180.000" y2="400.000" stroke="#f0f0f0" stroke-width="0.5"/>
  <line x1="200.000" y1="0" x2="200.000" y2="400.000" stroke="#f0f0f0" stroke-width="0.5"/>
  <line x1="220.000" y1="0" x2="220.000" y2="400.000" stroke="#f0f0f0" stroke-width="0.5"/>
  <line x1="240.000" y1="0" x2="240.000" y2="400.000" stroke="#f0f0f0" stroke-width="0.5"/>
  <line x1="260.000" y1="0" x2="260.000" y2="400.000" stroke="#f0f0f0" stroke-width="0.5"/>
  <line x1="280.000" y1="0" x2="280.000" y2="400.000" stroke="#f0f0f0" stroke-width="0.5"/>
  <line x1="300.000" y1="0" x2="300.000" y2="400.000" stroke="#f0f0f0" stroke-width="0.5"/>
  <line x1="320.000" y1="0" x2="320.000" y2="400.000" stroke="#f0f0f0" stroke-width="0.5"/>
  <line x1="340.000" y1="0" x2="340.000" y2="400.000" stroke="#f0f0f0" stroke-width="0.5"/>
  <line x1="360.000" y1="0" x2="360.000" y2="400.000" stroke="#f0f0f0" stroke-width="0.5"/>
  <line x1="380.000" y1="0" x2="380.000" y2="400.000" stroke="#f0f0f0" stroke-width="0.5"/>
  <line x1="400.000" y1="0" x2="400.000" y2="400.000" stroke="#f0f0f0" stroke-width="0.5"/>
  <line x1="0" y1="0.000" x2="400.000" y2="0.000" stroke="#f0f0f0" stroke-width="0.5"/>
  <line x1="0" y1="20.000" x2="400.000" y2="20.000" stroke="#f0f0f0" stroke-width="0.5"/>
  <line x1="0" y1="40.000" x2="400.000" y2="40.000" stroke="#f0f0f0" stroke-width="0.5"/>
  <line x1="0" y1="60.000" x2="400.000" y2="60.000" stroke="#f0f0f0" stroke-width="0.5"/>
  <line x1="0" y1="80.000" x2="400.000" y2="80.000" stroke="#f0f0f0" stroke-width="0.5"/>
  <line x1="0" y1="100.000" x2="400.000" y2="100.000" stroke="#f0f0f0" stroke-width="0.5"/>
  <line x1="0" y1="120.000" x2="400.000" y2="120.000" stroke="#f0f0f0" stroke-width="0.5"/>
  <line x1="0" y1="140.000" x2="400.000" y2="140.000" stroke="#f0f0f0" stroke-width="0.5"/>
  <line x1="0" y1="160.000" x2="400.000" y2="160.000" stroke="#f0f0f0" stroke-width="0.5"/>
  <line x1="0" y1="180.000" x2="400.000" y2="180.000" stroke="#f0f0f0" stroke-width="0.5"/>
  <line x1="0" y1="200.000" x2="400.000" y2="200.000" stroke="#f0f0f0" stroke-width="0.5"/>
  <line x1="0" y1="220.000" x2="400.000" y2="220.000" stroke="#f0f0f0" stroke-width="0.5"/>
  <line x1="0" y1="240.000" x2="400.000" y2="240.000" stroke="#f0f0f0" stroke-width="0.5"/>
  <line x1="0" y1="260.000" x2="400.000" y2="260.000" stroke="#f0f0f0" stroke-width="0.5"/>
  <line x1="0" y1="280.000" x2="400.000" y2="280.000" stroke="#f0f0f0" stroke-width="0.5"/>
  <line x1="0" y1="300.000" x2="400.000" y2="300.000" stroke="#f0f0f0" stroke-width="0.5"/>
  <line x1="0" y1="320.000" x2="400.000" y2="320.000" stroke="#f0f0f0" stroke-width="0.5"/>
  <line x1="0" y1="340.000" x2="400.000" y2="340.000" stroke="#f0f0f0" stroke-width="0.5"/>
  <line x1="0" y1="360.000" x2="400.000" y2="360.000" stroke="#f0f0f0" stroke-width="0.5"/>
  <line x1="0" y1="380.000" x2="400.000" y2="380.000" stroke="#f0f0f0" stroke-width="0.5"/>
  <line x1="0" y1="400.000" x2="400.000" y2="400.000" stroke="#f0f0f0" stroke-width="0.5"/>
  <!-- Content -->
  <path d="M 176.723,137.920 A 117.549,117.549 0 0,1 223.277,137.920 A 60.519,60.519 0 0,1 200.000,97.604 A 60.519,60.519 0 0,1 176.723,137.920 Z" stroke="black" stroke-width="2.000" fill="none"/>
  <circle cx="176.723" cy="137.920" r="3.000" fill="red"/>
  <text x="176.723" y="142.575" font-family="Arial, sans-serif" font-size="10.000" fill="red" text-anchor="middle">V0</text>
  <circle cx="223.277" cy="137.920" r="3.000" fill="red"/>
  <text x="223.277" y="142.575" font-family="Arial, sans-serif" font-size="10.000" fill="red" text-anchor="middle">V1</text>
  <circle cx="200.000" cy="97.604" r="3.000" fill="red"/>
  <text x="200.000" y="102.259" font-family="Arial, sans-serif" font-size="10.000" fill="red" text-anchor="middle">V2</text>
  <circle cx="200.000" cy="124.481" r="2.000" fill="green"/>
  <text x="200.000" y="129.137" font-family="Arial, sans-serif" font-size="10.000" fill="green" text-anchor="middle">Center</text>
  <circle cx="200.000" cy="253.141" r="2.000" fill="blue"/>
  <text x="200.000" y="257.796" font-family="Arial, sans-serif" font-size="10.000" fill="blue" text-anchor="middle">C0</text>
  <line x1="200.000" y1="253.141" x2="176.723" y2="137.920" stroke="lightblue" stroke-width="0.500" stroke-dasharray="1,1"/>
  <line x1="200.000" y1="253.141" x2="223.277" y2="137.920" stroke="lightblue" stroke-width="0.500" stroke-dasharray="1,1"/>
  <line x1="176.723" y1="137.920" x2="223.277" y2="137.920" stroke="gray" stroke-width="0.500" stroke-dasharray="2,2"/>
  <line x1="200.000" y1="137.920" x2="200.000" y2="147.230" stroke="orange" stroke-width="1.000"/>
  <circle cx="200.000" cy="137.920" r="1.500" fill="orange"/>
  <text x="200.000" y="142.575" font-family="Arial, sans-serif" font-size="10.000" fill="orange" text-anchor="middle">M0</text>
  <circle cx="260.017" cy="89.830" r="2.000" fill="blue"/>
  <text x="260.017" y="94.485" font-family="Arial, sans-serif" font-size="10.000" fill="blue" text-anchor="middle">C1</text>
  <line x1="260.017" y1="89.830" x2="223.277" y2="137.920" stroke="lightblue" stroke-width="0.500" stroke-dasharray="1,1"/>
  <line x1="260.017" y1="89.830" x2="200.000" y2="97.604" stroke="lightblue" stroke-width="0.500" stroke-dasharray="1,1"/>
  <line x1="223.277" y1="137.920" x2="200.000" y2="97.604" stroke="gray" stroke-width="0.500" stroke-dasharray="2,2"/>
  <line x1="211.638" y1="117.762" x2="219.702" y2="113.106" stroke="orange" stroke-width="1.000"/>
  <circle cx="211.638" cy="117.762" r="1.500" fill="orange"/>
  <text x="211.638" y="122.417" font-family="Arial, sans-serif" font-size="10.000" fill="orange" text-anchor="middle">M1</text>
  <circle cx="139.983" cy="89.830" r="2.000" fill="blue"/>
  <text x="139.983" y="94.485" font-family="Arial, sans-serif" font-size="10.000" fill="blue" text-anchor="middle">C2</text>
  <line x1="139.983" y1="89.830" x2="200.000" y2="97.604" stroke="lightblue" stroke-width="0.500" stroke-dasharray="1,1"/>
  <line x1="139.983" y1="89.830" x2="176.723" y2="137.920" stroke="lightblue" stroke-width="0.500" stroke-dasharray="1,1"/>
  <line x1="200.000" y1="97.604" x2="176.723" y2="137.920" stroke="gray" stroke-width="0.500" stroke-dasharray="2,2"/>
  <line x1="188.362" y1="117.762" x2="180.298" y2="113.106" stroke="orange" stroke-width="1.000"/>
  <circle cx="188.362" cy="117.762" r="1.500" fill="orange"/>
  <text x="188.362" y="122.417" font-family="Arial, sans-serif" font-size="10.000" fill="orange" text-anchor="middle">M2</text>
  <text x="200.000" y="144.903" font-family="Arial, sans-serif" font-size="8.000" fill="purple" text-anchor="middle">b0=-0.10</text>
  <text x="211.638" y="124.745" font-family="Arial, sans-serif" font-size="8.000" fill="purple" text-anchor="middle">b1=-0.20</text>
  <text x="188.362" y="124.745" font-family="Arial, sans-serif" font-size="8.000" fill="purple" text-anchor="middle">b2=-0.20</text>
  <text x="79.464" y="24.655" font-family="Arial, sans-serif" font-size="14.000" fill="black" text-anchor="middle">triarc_mixed_bulges</text>
</svg>
