<?xml version="1.0" encoding="UTF-8"?>
<svg xmlns="http://www.w3.org/2000/svg" width="800" height="800" viewBox="-1.2 -1.2 2.4 2.4">
  <title>Fusion-Based Polygon (Unit Circle Transformed)</title>
  <rect x="-1.2" y="-1.2" width="2.4" height="2.4" fill="white"/>
  <circle cx="0" cy="0" r="1" fill="none" stroke="lightgray" stroke-width="0.01"/>
  <path d="M 0.475 0 L 0.465873 0.0926679 L 0.438843 0.181775 L 0.394948 0.263896 L 0.335876 0.335876 L 0.263896 0.394948 L 0.181775 0.438843 L 0.0926679 0.465873 L 2.90854e-17 0.475 L -0.0926679 0.465873 L -0.181775 0.438843 L -0.263896 0.394948 L -0.335876 0.335876 L -0.394948 0.263896 L -0.438843 0.181775 L -0.465873 0.0926679 L -0.475 5.81707e-17 L -0.465873 -0.0926679 L -0.438843 -0.181775 L -0.394948 -0.263896 L -0.335876 -0.335876 L -0.263896 -0.394948 L -0.181775 -0.438843 L -0.0926679 -0.465873 L -8.72561e-17 -0.475 L 0.0926679 -0.465873 L 0.181775 -0.438843 L 0.263896 -0.394948 L 0.335876 -0.335876 L 0.394948 -0.263896 L 0.438843 -0.181775 L 0.465873 -0.0926679 Z" fill="none" stroke="green" stroke-width="0.02"/>
  <circle cx="0.475" cy="0" r="0.03" fill="red"/>
  <text x="0.525" y="-0.05" font-size="0.06" fill="black">0</text>
  <circle cx="0.465873" cy="0.0926679" r="0.03" fill="red"/>
  <text x="0.515873" y="0.0426679" font-size="0.06" fill="black">1</text>
  <circle cx="0.438843" cy="0.181775" r="0.03" fill="red"/>
  <text x="0.488843" y="0.131775" font-size="0.06" fill="black">2</text>
  <circle cx="0.394948" cy="0.263896" r="0.03" fill="red"/>
  <text x="0.444948" y="0.213896" font-size="0.06" fill="black">3</text>
  <circle cx="0.335876" cy="0.335876" r="0.03" fill="red"/>
  <text x="0.385876" y="0.285876" font-size="0.06" fill="black">4</text>
  <circle cx="0.263896" cy="0.394948" r="0.03" fill="red"/>
  <text x="0.313896" y="0.344948" font-size="0.06" fill="black">5</text>
  <circle cx="0.181775" cy="0.438843" r="0.03" fill="red"/>
  <text x="0.231775" y="0.388843" font-size="0.06" fill="black">6</text>
  <circle cx="0.0926679" cy="0.465873" r="0.03" fill="red"/>
  <text x="0.142668" y="0.415873" font-size="0.06" fill="black">7</text>
  <circle cx="2.90854e-17" cy="0.475" r="0.03" fill="red"/>
  <text x="0.05" y="0.425" font-size="0.06" fill="black">8</text>
  <circle cx="-0.0926679" cy="0.465873" r="0.03" fill="red"/>
  <text x="-0.0426679" y="0.415873" font-size="0.06" fill="black">9</text>
  <circle cx="-0.181775" cy="0.438843" r="0.03" fill="red"/>
  <text x="-0.131775" y="0.388843" font-size="0.06" fill="black">10</text>
  <circle cx="-0.263896" cy="0.394948" r="0.03" fill="red"/>
  <text x="-0.213896" y="0.344948" font-size="0.06" fill="black">11</text>
  <circle cx="-0.335876" cy="0.335876" r="0.03" fill="red"/>
  <text x="-0.285876" y="0.285876" font-size="0.06" fill="black">12</text>
  <circle cx="-0.394948" cy="0.263896" r="0.03" fill="red"/>
  <text x="-0.344948" y="0.213896" font-size="0.06" fill="black">13</text>
  <circle cx="-0.438843" cy="0.181775" r="0.03" fill="red"/>
  <text x="-0.388843" y="0.131775" font-size="0.06" fill="black">14</text>
  <circle cx="-0.465873" cy="0.0926679" r="0.03" fill="red"/>
  <text x="-0.415873" y="0.0426679" font-size="0.06" fill="black">15</text>
  <circle cx="-0.475" cy="5.81707e-17" r="0.03" fill="red"/>
  <text x="-0.425" y="-0.05" font-size="0.06" fill="black">16</text>
  <circle cx="-0.465873" cy="-0.0926679" r="0.03" fill="red"/>
  <text x="-0.415873" y="-0.142668" font-size="0.06" fill="black">17</text>
  <circle cx="-0.438843" cy="-0.181775" r="0.03" fill="red"/>
  <text x="-0.388843" y="-0.231775" font-size="0.06" fill="black">18</text>
  <circle cx="-0.394948" cy="-0.263896" r="0.03" fill="red"/>
  <text x="-0.344948" y="-0.313896" font-size="0.06" fill="black">19</text>
  <circle cx="-0.335876" cy="-0.335876" r="0.03" fill="red"/>
  <text x="-0.285876" y="-0.385876" font-size="0.06" fill="black">20</text>
  <circle cx="-0.263896" cy="-0.394948" r="0.03" fill="red"/>
  <text x="-0.213896" y="-0.444948" font-size="0.06" fill="black">21</text>
  <circle cx="-0.181775" cy="-0.438843" r="0.03" fill="red"/>
  <text x="-0.131775" y="-0.488843" font-size="0.06" fill="black">22</text>
  <circle cx="-0.0926679" cy="-0.465873" r="0.03" fill="red"/>
  <text x="-0.0426679" y="-0.515873" font-size="0.06" fill="black">23</text>
  <circle cx="-8.72561e-17" cy="-0.475" r="0.03" fill="red"/>
  <text x="0.05" y="-0.525" font-size="0.06" fill="black">24</text>
  <circle cx="0.0926679" cy="-0.465873" r="0.03" fill="red"/>
  <text x="0.142668" y="-0.515873" font-size="0.06" fill="black">25</text>
  <circle cx="0.181775" cy="-0.438843" r="0.03" fill="red"/>
  <text x="0.231775" y="-0.488843" font-size="0.06" fill="black">26</text>
  <circle cx="0.263896" cy="-0.394948" r="0.03" fill="red"/>
  <text x="0.313896" y="-0.444948" font-size="0.06" fill="black">27</text>
  <circle cx="0.335876" cy="-0.335876" r="0.03" fill="red"/>
  <text x="0.385876" y="-0.385876" font-size="0.06" fill="black">28</text>
  <circle cx="0.394948" cy="-0.263896" r="0.03" fill="red"/>
  <text x="0.444948" y="-0.313896" font-size="0.06" fill="black">29</text>
  <circle cx="0.438843" cy="-0.181775" r="0.03" fill="red"/>
  <text x="0.488843" y="-0.231775" font-size="0.06" fill="black">30</text>
  <circle cx="0.465873" cy="-0.0926679" r="0.03" fill="red"/>
  <text x="0.515873" y="-0.142668" font-size="0.06" fill="black">31</text>
  <text x="-1.1" y="1.1" font-size="0.08" fill="darkgreen">Fusion-based polygon (from strokes)</text>
</svg>
